<?xml version="1.0" encoding="UTF-8"?>
<svg xmlns="http://www.w3.org/2000/svg" xmlns:xlink="http://www.w3.org/1999/xlink" width="900px" height="200px" viewBox="0 0 900 200" version="1.1">
<g id="surface1">
<path style=" stroke:none;fill-rule:nonzero;fill:#ffffff;fill-opacity:1;" d="M 0 78.667969 L 13.699219 71 C 27.300781 63.332031 54.699219 48 82 41.667969 C 109.300781 35.332031 136.699219 38 163.800781 37.332031 C 191 36.667969 218 32.667969 245.199219 37 C 272.300781 41.332031 299.699219 54 327 53.332031 C 354.300781 52.667969 381.699219 38.667969 409 39.332031 C 436.300781 40 463.699219 55.332031 491 59.332031 C 518.300781 63.332031 545.699219 56 573 53.332031 C 600.300781 50.667969 627.699219 52.667969 654.800781 53.332031 C 682 54 709 53.332031 736.199219 50.332031 C 763.300781 47.332031 790.699219 42 818 42.332031 C 845.300781 42.667969 872.699219 48.667969 886.300781 51.667969 L 900 54.667969 L 900 0 L 886.300781 0 C 872.699219 0 845.300781 0 818 0 C 790.699219 0 763.300781 0 736.199219 0 C 709 0 682 0 654.800781 0 C 627.699219 0 600.300781 0 573 0 C 545.699219 0 518.300781 0 491 0 C 463.699219 0 436.300781 0 409 0 C 381.699219 0 354.300781 0 327 0 C 299.699219 0 272.300781 0 245.199219 0 C 218 0 191 0 163.800781 0 C 136.699219 0 109.300781 0 82 0 C 54.699219 0 27.300781 0 13.699219 0 L 0 0 Z M 0 78.667969 "/>
<path style=" stroke:none;fill-rule:nonzero;fill:rgb(93.72549%,26.666667%,26.666667%);fill-opacity:1;" d="M 0 108.667969 L 13.699219 100.667969 C 27.300781 92.667969 54.699219 76.667969 82 69.332031 C 109.300781 62 136.699219 63.332031 163.800781 62 C 191 60.667969 218 56.667969 245.199219 59.332031 C 272.300781 62 299.699219 71.332031 327 69.667969 C 354.300781 68 381.699219 55.332031 409 59 C 436.300781 62.667969 463.699219 82.667969 491 88 C 518.300781 93.332031 545.699219 84 573 78.667969 C 600.300781 73.332031 627.699219 72 654.800781 72 C 682 72 709 73.332031 736.199219 69.667969 C 763.300781 66 790.699219 57.332031 818 59.667969 C 845.300781 62 872.699219 75.332031 886.300781 82 L 900 88.667969 L 900 53.332031 L 886.300781 50.332031 C 872.699219 47.332031 845.300781 41.332031 818 41 C 790.699219 40.667969 763.300781 46 736.199219 49 C 709 52 682 52.667969 654.800781 52 C 627.699219 51.332031 600.300781 49.332031 573 52 C 545.699219 54.667969 518.300781 62 491 58 C 463.699219 54 436.300781 38.667969 409 38 C 381.699219 37.332031 354.300781 51.332031 327 52 C 299.699219 52.667969 272.300781 40 245.199219 35.667969 C 218 31.332031 191 35.332031 163.800781 36 C 136.699219 36.667969 109.300781 34 82 40.332031 C 54.699219 46.667969 27.300781 62 13.699219 69.667969 L 0 77.332031 Z M 0 108.667969 "/>
<path style=" stroke:none;fill-rule:nonzero;fill:rgb(86.27451%,14.901961%,14.901961%);fill-opacity:1;" d="M 0 128.667969 L 13.699219 123 C 27.300781 117.332031 54.699219 106 82 103.332031 C 109.300781 100.667969 136.699219 106.667969 163.800781 106.332031 C 191 106 218 99.332031 245.199219 102.667969 C 272.300781 106 299.699219 119.332031 327 119.332031 C 354.300781 119.332031 381.699219 106 409 106.332031 C 436.300781 106.667969 463.699219 120.667969 491 125 C 518.300781 129.332031 545.699219 124 573 116.332031 C 600.300781 108.667969 627.699219 98.667969 654.800781 97 C 682 95.332031 709 102 736.199219 99.332031 C 763.300781 96.667969 790.699219 84.667969 818 86 C 845.300781 87.332031 872.699219 102 886.300781 109.332031 L 900 116.667969 L 900 87.332031 L 886.300781 80.667969 C 872.699219 74 845.300781 60.667969 818 58.332031 C 790.699219 56 763.300781 64.667969 736.199219 68.332031 C 709 72 682 70.667969 654.800781 70.667969 C 627.699219 70.667969 600.300781 72 573 77.332031 C 545.699219 82.667969 518.300781 92 491 86.667969 C 463.699219 81.332031 436.300781 61.332031 409 57.667969 C 381.699219 54 354.300781 66.667969 327 68.332031 C 299.699219 70 272.300781 60.667969 245.199219 58 C 218 55.332031 191 59.332031 163.800781 60.667969 C 136.699219 62 109.300781 60.667969 82 68 C 54.699219 75.332031 27.300781 91.332031 13.699219 99.332031 L 0 107.332031 Z M 0 128.667969 "/>
<path style=" stroke:none;fill-rule:nonzero;fill:rgb(72.54902%,10.980392%,10.980392%);fill-opacity:1;" d="M 0 170.667969 L 13.699219 172.332031 C 27.300781 174 54.699219 177.332031 82 175.667969 C 109.300781 174 136.699219 167.332031 163.800781 164.332031 C 191 161.332031 218 162 245.199219 161.667969 C 272.300781 161.332031 299.699219 160 327 160 C 354.300781 160 381.699219 161.332031 409 164 C 436.300781 166.667969 463.699219 170.667969 491 173.667969 C 518.300781 176.667969 545.699219 178.667969 573 177.332031 C 600.300781 176 627.699219 171.332031 654.800781 171.667969 C 682 172 709 177.332031 736.199219 179 C 763.300781 180.667969 790.699219 178.667969 818 175.332031 C 845.300781 172 872.699219 167.332031 886.300781 165 L 900 162.667969 L 900 115.332031 L 886.300781 108 C 872.699219 100.667969 845.300781 86 818 84.667969 C 790.699219 83.332031 763.300781 95.332031 736.199219 98 C 709 100.667969 682 94 654.800781 95.667969 C 627.699219 97.332031 600.300781 107.332031 573 115 C 545.699219 122.667969 518.300781 128 491 123.667969 C 463.699219 119.332031 436.300781 105.332031 409 105 C 381.699219 104.667969 354.300781 118 327 118 C 299.699219 118 272.300781 104.667969 245.199219 101.332031 C 218 98 191 104.667969 163.800781 105 C 136.699219 105.332031 109.300781 99.332031 82 102 C 54.699219 104.667969 27.300781 116 13.699219 121.667969 L 0 127.332031 Z M 0 170.667969 "/>
<path style=" stroke:none;fill-rule:nonzero;fill:rgb(60%,10.588235%,10.588235%);fill-opacity:1;" d="M 0 200.667969 L 13.699219 200.667969 C 27.300781 200.667969 54.699219 200.667969 82 200.667969 C 109.300781 200.667969 136.699219 200.667969 163.800781 200.667969 C 191 200.667969 218 200.667969 245.199219 200.667969 C 272.300781 200.667969 299.699219 200.667969 327 200.667969 C 354.300781 200.667969 381.699219 200.667969 409 200.667969 C 436.300781 200.667969 463.699219 200.667969 491 200.667969 C 518.300781 200.667969 545.699219 200.667969 573 200.667969 C 600.300781 200.667969 627.699219 200.667969 654.800781 200.667969 C 682 200.667969 709 200.667969 736.199219 200.667969 C 763.300781 200.667969 790.699219 200.667969 818 200.667969 C 845.300781 200.667969 872.699219 200.667969 886.300781 200.667969 L 900 200.667969 L 900 161.332031 L 886.300781 163.667969 C 872.699219 166 845.300781 170.667969 818 174 C 790.699219 177.332031 763.300781 179.332031 736.199219 177.667969 C 709 176 682 170.667969 654.800781 170.332031 C 627.699219 170 600.300781 174.667969 573 176 C 545.699219 177.332031 518.300781 175.332031 491 172.332031 C 463.699219 169.332031 436.300781 165.332031 409 162.667969 C 381.699219 160 354.300781 158.667969 327 158.667969 C 299.699219 158.667969 272.300781 160 245.199219 160.332031 C 218 160.667969 191 160 163.800781 163 C 136.699219 166 109.300781 172.667969 82 174.332031 C 54.699219 176 27.300781 172.667969 13.699219 171 L 0 169.332031 Z M 0 200.667969 "/>
</g>
</svg>
